<svg width="128" height="128" viewBox="0 0 128 128" fill="none" xmlns="http://www.w3.org/2000/svg">
<path d="M12.5 34L25 21L33 13L33.5 12L39.5 11L40.5 9L44.5 8.5L51 7L53 5L71 4L74.5 7H85L89 11L92.5 10.5L110 28L113 31L114.5 31.5V38.5L117.5 40.5V47L121 51L121.5 76L119.5 78.5L117 88.5L115 91.5L113.5 96.5L110 100L105.5 104.5L102.5 107.5L101 108.5L99.5 111L97.5 111.5L95 116H89.5L86.5 120L77 120.5L75 123.5L71 124L53.5 123.5L51 121L41 119L38.5 116.5H34L30 111.5L25 108L22.5 103.5L17 100L12.5 91.5L9.5 81.5L7 75.5V52L11 43.5L12.5 34Z" fill="white"/>
<path d="M20 38H24V42H20V38Z" fill="#212121"/>
<path d="M16 34H20V38H16V34Z" fill="#212121"/>
<path d="M20 30H24V34H20V30Z" fill="#212121"/>
<path d="M24 26H28V30H24V26Z" fill="#212121"/>
<path d="M28 22H32V26H28V22Z" fill="#212121"/>
<path d="M32 18H36V22H32V18Z" fill="#212121"/>
<path d="M36 14H40V18H36V14Z" fill="#212121"/>
<path d="M36 10H40V14H36V10Z" fill="#212121"/>
<path d="M40 6H44V10H40V6Z" fill="#212121"/>
<path d="M44 6H48V10H44V6Z" fill="#212121"/>
<path d="M48 6H52V10H48V6Z" fill="#212121"/>
<path d="M52 2H56V6H52V2Z" fill="#212121"/>
<path d="M56 2H60V6H56V2Z" fill="#212121"/>
<path d="M60 2H64V6H60V2Z" fill="#212121"/>
<path d="M64 2H68V6H64V2Z" fill="#212121"/>
<path d="M68 2H72V6H68V2Z" fill="#212121"/>
<path d="M72 2H76V6H72V2Z" fill="#212121"/>
<path d="M72 6H76V10H72V6Z" fill="#212121"/>
<path d="M76 6H80V10H76V6Z" fill="#212121"/>
<path d="M76 10H80V14H76V10Z" fill="#212121"/>
<path d="M80 14H84V18H80V14Z" fill="#212121"/>
<path d="M76 18H80V22H76V18Z" fill="#212121"/>
<path d="M72 22H76V26H72V22Z" fill="#212121"/>
<path d="M68 18H72V22H68V18Z" fill="#212121"/>
<path d="M72 14H76V18H72V14Z" fill="#212121"/>
<path d="M80 6H84V10H80V6Z" fill="#212121"/>
<path d="M84 6H88V10H84V6Z" fill="#212121"/>
<path d="M88 10H92V14H88V10Z" fill="#212121"/>
<path d="M92 10H96V14H92V10Z" fill="#212121"/>
<path d="M96 14H100V18H96V14Z" fill="#212121"/>
<path d="M100 18H104V22H100V18Z" fill="#212121"/>
<path d="M104 22H108V26H104V22Z" fill="#212121"/>
<path d="M108 26H112V30H108V26Z" fill="#212121"/>
<path d="M112 30H116V34H112V30Z" fill="#212121"/>
<path d="M112 34H116V38H112V34Z" fill="#212121"/>
<path d="M112 38H116V42H112V38Z" fill="#212121"/>
<path d="M116 38H120V42H116V38Z" fill="#212121"/>
<path d="M116 42H120V46H116V42Z" fill="#212121"/>
<path d="M108 42H112V46H108V42Z" fill="#212121"/>
<path d="M104 38H108V42H104V38Z" fill="#212121"/>
<path d="M108 34H112V38H108V34Z" fill="#212121"/>
<path d="M104 30H108V34H104V30Z" fill="#212121"/>
<path d="M100 26H104V30H100V26Z" fill="#212121"/>
<path d="M96 22H100V26H96V22Z" fill="#212121"/>
<path d="M80 30H84V34H80V30Z" fill="#212121"/>
<path d="M88 46H92V50H88V46Z" fill="#212121"/>
<path d="M100 42H104V46H100V42Z" fill="#212121"/>
<path d="M96 38H100V42H96V38Z" fill="#212121"/>
<path d="M100 34H104V38H100V34Z" fill="#212121"/>
<path d="M96 30H100V34H96V30Z" fill="#212121"/>
<path d="M92 26H96V30H92V26Z" fill="#212121"/>
<path d="M92 42H96V46H92V42Z" fill="#212121"/>
<path d="M88 38H92V42H88V38Z" fill="#212121"/>
<path d="M92 34H96V38H92V34Z" fill="#212121"/>
<path d="M88 30H92V34H88V30Z" fill="#212121"/>
<path d="M84 26H88V30H84V26Z" fill="#212121"/>
<path d="M84 42H88V46H84V42Z" fill="#212121"/>
<path d="M32 10H36V14H32V10Z" fill="#212121"/>
<path d="M28 14H32V18H28V14Z" fill="#212121"/>
<path d="M24 18H28V22H24V18Z" fill="#212121"/>
<path d="M20 22H24V26H20V22Z" fill="#212121"/>
<path d="M16 26H20V30H16V26Z" fill="#212121"/>
<path d="M12 30H16V34H12V30Z" fill="#212121"/>
<path d="M12 34H16V38H12V34Z" fill="#212121"/>
<path d="M8 38H12V42H8V38Z" fill="#212121"/>
<path d="M8 42H12V46H8V42Z" fill="#212121"/>
<path d="M8 46H12V50H8V46Z" fill="#212121"/>
<path d="M4 50H8V54H4V50Z" fill="#212121"/>
<path d="M4 54H8V58H4V54Z" fill="#212121"/>
<path d="M4 58H8V62H4V58Z" fill="#212121"/>
<path d="M4 62H8V66H4V62Z" fill="#212121"/>
<path d="M4 66H8V70H4V66Z" fill="#212121"/>
<path d="M4 70H8V74H4V70Z" fill="#212121"/>
<path d="M4 74H8V78H4V74Z" fill="#212121"/>
<path d="M8 78H12V82H8V78Z" fill="#212121"/>
<path d="M8 82H12V86H8V82Z" fill="#212121"/>
<path d="M8 86H12V90H8V86Z" fill="#212121"/>
<path d="M12 90H16V94H12V90Z" fill="#212121"/>
<path d="M12 94H16V98H12V94Z" fill="#212121"/>
<path d="M16 98H20V102H16V98Z" fill="#212121"/>
<path d="M20 102H24V106H20V102Z" fill="#212121"/>
<path d="M24 106H28V110H24V106Z" fill="#212121"/>
<path d="M28 110H32V114H28V110Z" fill="#212121"/>
<path d="M32 114H36V118H32V114Z" fill="#212121"/>
<path d="M36 114H40V118H36V114Z" fill="#212121"/>
<path d="M40 118H44V122H40V118Z" fill="#212121"/>
<path d="M44 118H48V122H44V118Z" fill="#212121"/>
<path d="M48 118H52V122H48V118Z" fill="#212121"/>
<path d="M52 122H56V126H52V122Z" fill="#212121"/>
<path d="M56 122H60V126H56V122Z" fill="#212121"/>
<path d="M60 122H64V126H60V122Z" fill="#212121"/>
<path d="M64 122H68V126H64V122Z" fill="#212121"/>
<path d="M68 122H72V126H68V122Z" fill="#212121"/>
<path d="M72 122H76V126H72V122Z" fill="#212121"/>
<path d="M24 34H28V38H24V34Z" fill="#212121"/>
<path d="M28 30H32V34H28V30Z" fill="#212121"/>
<path d="M32 26H36V30H32V26Z" fill="#212121"/>
<path d="M36 22H40V26H36V22Z" fill="#212121"/>
<path d="M40 18H44V22H40V18Z" fill="#212121"/>
<path d="M44 14H48V18H44V14Z" fill="#212121"/>
<path d="M48 10H52V14H48V10Z" fill="#212121"/>
<path d="M52 14H56V18H52V14Z" fill="#212121"/>
<path d="M56 18H60V22H56V18Z" fill="#212121"/>
<path d="M48 18H52V22H48V18Z" fill="#212121"/>
<path d="M44 22H48V26H44V22Z" fill="#212121"/>
<path d="M40 26H44V30H40V26Z" fill="#212121"/>
<path d="M36 30H40V34H36V30Z" fill="#212121"/>
<path d="M32 34H36V38H32V34Z" fill="#212121"/>
<path d="M28 38H32V42H28V38Z" fill="#212121"/>
<path d="M24 42H28V46H24V42Z" fill="#212121"/>
<path d="M28 46H32V50H28V46Z" fill="#212121"/>
<path d="M32 42H36V46H32V42Z" fill="#212121"/>
<path d="M36 38H40V42H36V38Z" fill="#212121"/>
<path d="M40 34H44V38H40V34Z" fill="#212121"/>
<path d="M44 30H48V34H44V30Z" fill="#212121"/>
<path d="M48 26H52V30H48V26Z" fill="#212121"/>
<path d="M52 30H56V34H52V30Z" fill="#212121"/>
<path d="M48 34H52V38H48V34Z" fill="#212121"/>
<path d="M40 42H44V46H40V42Z" fill="#212121"/>
<path d="M36 46H40V50H36V46Z" fill="#212121"/>
<path d="M32 50H36V54H32V50Z" fill="#212121"/>
<path d="M28 54H32V58H28V54Z" fill="#212121"/>
<path d="M24 58H28V62H24V58Z" fill="#212121"/>
<path d="M28 62H32V66H28V62Z" fill="#212121"/>
<path d="M32 66H36V70H32V66Z" fill="#212121"/>
<path d="M36 70H40V74H36V70Z" fill="#212121"/>
<path d="M32 74H36V78H32V74Z" fill="#212121"/>
<path d="M28 70H32V74H28V70Z" fill="#212121"/>
<path d="M40 74H44V78H40V74Z" fill="#212121"/>
<path d="M44 78H48V82H44V78Z" fill="#212121"/>
<path d="M48 82H52V86H48V82Z" fill="#212121"/>
<path d="M52 86H56V90H52V86Z" fill="#212121"/>
<path d="M56 82H60V86H56V82Z" fill="#212121"/>
<path d="M60 86H64V90H60V86Z" fill="#212121"/>
<path d="M64 90H68V94H64V90Z" fill="#212121"/>
<path d="M68 94H72V98H68V94Z" fill="#212121"/>
<path d="M72 98H76V102H72V98Z" fill="#212121"/>
<path d="M68 102H72V106H68V102Z" fill="#212121"/>
<path d="M72 106H76V110H72V106Z" fill="#212121"/>
<path d="M76 110H80V114H76V110Z" fill="#212121"/>
<path d="M76 118H80V122H76V118Z" fill="#212121"/>
<path d="M80 118H84V122H80V118Z" fill="#212121"/>
<path d="M84 118H88V122H84V118Z" fill="#212121"/>
<path d="M88 114H92V118H88V114Z" fill="#212121"/>
<path d="M92 114H96V118H92V114Z" fill="#212121"/>
<path d="M96 110H100V114H96V110Z" fill="#212121"/>
<path d="M100 106H104V110H100V106Z" fill="#212121"/>
<path d="M104 102H108V106H104V102Z" fill="#212121"/>
<path d="M108 98H112V102H108V98Z" fill="#212121"/>
<path d="M112 94H116V98H112V94Z" fill="#212121"/>
<path d="M112 90H116V94H112V90Z" fill="#212121"/>
<path d="M116 86H120V90H116V86Z" fill="#212121"/>
<path d="M116 82H120V86H116V82Z" fill="#212121"/>
<path d="M116 78H120V82H116V78Z" fill="#212121"/>
<path d="M120 74H124V78H120V74Z" fill="#212121"/>
<path d="M120 70H124V74H120V70Z" fill="#212121"/>
<path d="M120 66H124V70H120V66Z" fill="#212121"/>
<path d="M116 66H120V70H116V66Z" fill="#212121"/>
<path d="M112 70H116V74H112V70Z" fill="#212121"/>
<path d="M108 66H112V70H108V66Z" fill="#212121"/>
<path d="M104 70H108V74H104V70Z" fill="#212121"/>
<path d="M100 74H104V78H100V74Z" fill="#212121"/>
<path d="M96 70H100V74H96V70Z" fill="#212121"/>
<path d="M100 66H104V70H100V66Z" fill="#212121"/>
<path d="M96 62H100V66H96V62Z" fill="#212121"/>
<path d="M92 58H96V62H92V58Z" fill="#212121"/>
<path d="M104 62H108V66H104V62Z" fill="#212121"/>
<path d="M100 58H104V62H100V58Z" fill="#212121"/>
<path d="M96 54H100V58H96V54Z" fill="#212121"/>
<path d="M108 58H112V62H108V58Z" fill="#212121"/>
<path d="M104 54H108V58H104V54Z" fill="#212121"/>
<path d="M100 50H104V54H100V50Z" fill="#212121"/>
<path d="M112 54H116V58H112V54Z" fill="#212121"/>
<path d="M116 58H120V62H116V58Z" fill="#212121"/>
<path d="M112 62H116V66H112V62Z" fill="#212121"/>
<path d="M92 66H96V70H92V66Z" fill="#212121"/>
<path d="M88 70H92V74H88V70Z" fill="#212121"/>
<path d="M92 74H96V78H92V74Z" fill="#212121"/>
<path d="M88 62H92V66H88V62Z" fill="#212121"/>
<path d="M120 62H124V66H120V62Z" fill="#212121"/>
<path d="M120 58H124V62H120V58Z" fill="#212121"/>
<path d="M120 54H124V58H120V54Z" fill="#212121"/>
<path d="M120 50H124V54H120V50Z" fill="#212121"/>
<path d="M116 46H120V50H116V46Z" fill="#212121"/>
<path d="M72 114H76V118H72V114Z" fill="#212121"/>
<path d="M68 118H72V122H68V118Z" fill="#212121"/>
<path d="M68 110H72V114H68V110Z" fill="#212121"/>
<path d="M76 102H80V106H76V102Z" fill="#212121"/>
<path d="M80 106H84V110H80V106Z" fill="#212121"/>
<path d="M84 102H88V106H84V102Z" fill="#212121"/>
<path d="M80 98H84V102H80V98Z" fill="#212121"/>
<path d="M84 94H88V98H84V94Z" fill="#212121"/>
<path d="M80 90H84V94H80V90Z" fill="#212121"/>
<path d="M76 86H80V90H76V86Z" fill="#212121"/>
<path d="M72 82H76V86H72V82Z" fill="#212121"/>
<path d="M76 94H80V98H76V94Z" fill="#212121"/>
<path d="M72 90H76V94H72V90Z" fill="#212121"/>
<path d="M68 86H72V90H68V86Z" fill="#212121"/>
<path d="M52 78H56V82H52V78Z" fill="#212121"/>
<path d="M56 74H60V78H56V74Z" fill="#212121"/>
<path d="M60 70H64V74H60V70Z" fill="#212121"/>
<path d="M60 62H64V66H60V62Z" fill="#212121"/>
<path d="M60 54H64V58H60V54Z" fill="#212121"/>
<path d="M60 46H64V50H60V46Z" fill="#212121"/>
<path d="M60 38H64V42H60V38Z" fill="#212121"/>
<path d="M60 30H64V34H60V30Z" fill="#212121"/>
<path d="M64 26H68V30H64V26Z" fill="#212121"/>
<path d="M68 30H72V34H68V30Z" fill="#212121"/>
<path d="M64 34H68V38H64V34Z" fill="#212121"/>
<path d="M68 38H72V42H68V38Z" fill="#212121"/>
<path d="M68 46H72V50H68V46Z" fill="#212121"/>
<path d="M64 50H68V54H64V50Z" fill="#212121"/>
<path d="M72 50H76V54H72V50Z" fill="#212121"/>
<path d="M64 58H68V62H64V58Z" fill="#212121"/>
<path d="M56 34H60V38H56V34Z" fill="#212121"/>
<path d="M56 50H60V54H56V50Z" fill="#212121"/>
<path d="M56 58H60V62H56V58Z" fill="#212121"/>
<path d="M52 54H56V58H52V54Z" fill="#212121"/>
<path d="M48 50H52V54H48V50Z" fill="#212121"/>
<path d="M52 46H56V50H52V46Z" fill="#212121"/>
<path d="M52 38H56V42H52V38Z" fill="#212121"/>
<path d="M44 46H48V50H44V46Z" fill="#212121"/>
<path d="M56 66H60V70H56V66Z" fill="#212121"/>
<path d="M52 70H56V74H52V70Z" fill="#212121"/>
<path d="M52 62H56V66H52V62Z" fill="#212121"/>
<path d="M48 66H52V70H48V66Z" fill="#212121"/>
<path d="M44 70H48V74H44V70Z" fill="#212121"/>
<path d="M48 58H52V62H48V58Z" fill="#212121"/>
<path d="M44 62H48V66H44V62Z" fill="#212121"/>
<path d="M40 66H44V70H40V66Z" fill="#212121"/>
<path d="M44 54H48V58H44V54Z" fill="#212121"/>
<path d="M40 58H44V62H40V58Z" fill="#212121"/>
<path d="M36 62H40V66H36V62Z" fill="#212121"/>
<path d="M40 50H44V54H40V50Z" fill="#212121"/>
<path d="M36 54H40V58H36V54Z" fill="#212121"/>
<path d="M32 58H36V62H32V58Z" fill="#212121"/>
<path d="M24 50H28V54H24V50Z" fill="#212121"/>
</svg>
