<svg xmlns="http://www.w3.org/2000/svg" xmlns:xlink="http://www.w3.org/1999/xlink" version="1.1" x="0px" y="0px" viewBox="0 0 100 125" style="enable-background:new 0 0 100 100;" xml:space="preserve"><style type="text/css">
	.st0{fill:#1D1D1B;}
</style><path class="st0" d="M58.75,32.66v2.5h-2.5h-2.5h-2.5v2.5v2.5v2.5v2.5v2.5v2.5v2.5v2.5v2.5v2.5v2.5v2.5v2.5v2.5v2.5h-2.5v-2.5v-2.5  v-2.5v-2.5v-2.5v-2.5v-2.5v-2.5v-2.5v-2.5v-2.5v-2.5v-2.5v-2.5v-2.5h-2.5h-2.5h-2.5v-2.5h2.5v-2.5h2.5v-2.5h2.5v-2.5h2.5v2.5h2.5  v2.5h2.5v2.5H58.75z"/><text x="0" y="115" fill="#000000" font-size="5px" font-weight="bold" font-family="'Helvetica Neue', Helvetica, Arial-Unicode, Arial, Sans-serif">Created by Filippo Lessio</text><text x="0" y="120" fill="#000000" font-size="5px" font-weight="bold" font-family="'Helvetica Neue', Helvetica, Arial-Unicode, Arial, Sans-serif">from the Noun Project</text></svg>